<svg width="221" height="141" viewBox="0 0 221 141" fill="none" xmlns="http://www.w3.org/2000/svg">
<path d="M220.085 128.131C220.085 131.012 220.402 138.146 220.185 140.97C177.718 119.16 79.9728 103.337 0.390363 140.97C0.173133 138.146 0.0631084 135.291 0.0631084 132.411C-2.04572 71.2958 48.9851 17.9065 109.86 17.9065C170.503 16.6892 221.497 66.0809 220.085 128.131Z" fill="url(#paint0_linear_88_107103)"/>
<path d="M81.6587 90.685H167.648C154.939 82.8746 141.508 76.0572 120.18 76.4056C104.946 76.991 92.0886 83.0791 81.6587 90.685Z" fill="#00A651"/>
<path d="M144.449 80.3493C144.716 70.9477 147.849 62.5872 155.675 54.4777C159.596 58.1297 158.256 62.5618 156.37 67.788C159.097 68.0292 165.323 61.7154 161.368 54.9587C164.869 56.0815 166.811 59.7082 168.37 64.6339C170.72 59.5234 168.931 53.1151 161.341 51.057C165.096 49.7889 169.838 49.7508 175.186 50.4688C171.122 44.1818 165.769 43.2057 159.417 46.3527C160.594 37.9879 154.071 34.5659 148.192 35.9821C150.437 37.5055 154.393 42.4496 154.473 46.5389C150.11 40.7866 144.583 42.7698 140.335 46.8323C145.279 45.3893 149.762 46.0819 152.683 49.559C144.737 48.604 140.782 51.7101 139.8 57.8448C143.035 54.9587 147.737 52.8471 152.041 53.7287C144.121 61.1455 140.174 70.3355 140.869 79.9035L144.451 80.3493H144.449Z" fill="#00A651"/>
<path d="M121.732 15.3627C121.585 10.6245 122.825 6.35046 127.184 3.12163L126.381 7.18412C128.727 2.93261 132.046 0.440103 136.484 0C135.574 1.08192 135.241 2.03689 135.041 2.96082C136.951 0.902776 141.776 -0.981768 146.32 1.625C138.711 3.47851 129.874 12.1734 128.947 17.6605C139.46 10.2832 151.718 13.2412 157.011 22.4185C149.018 18.8201 134.863 19.9415 131.727 24.0759C140.945 25.1719 145.519 30.5025 146.445 35.678C145.538 34.8062 144.551 34.3675 143.487 34.3393C146.018 35.3733 146.656 38.66 145.785 41.1285C140.961 34.0036 133.759 29.3148 127.023 28.9946C138.515 42.5179 140.079 60.8795 139.371 79.0267L129.75 78.0647C133.904 64.7135 130.499 39.8448 123.495 29.635C114.596 37.8178 111.468 51.3369 114.247 61.9741C111.539 60.4422 109.437 55.7027 110.078 51.8179C109.374 52.1974 108.894 53.0028 108.581 54.1158C106.639 50.4807 105.899 45.0132 109.062 41.1271L106.924 42.5701C106.763 37.358 110.051 32.4675 113.23 30.1682C105.462 32.2813 98.6801 38.4286 92.4904 47.0064C92.3917 44.0696 92.3747 41.1623 94.2015 38.935C93.1153 38.9012 92.1744 39.5134 91.3154 40.4853C93.5244 31.5196 101.285 26.6432 112.109 24.0209C109.006 22.8529 105.74 22.8769 102.326 23.9673C102.624 22.8755 103.173 21.8909 104.25 21.1348C99.4926 19.1036 93.1153 18.71 87.6267 20.1728C89.4167 16.5377 94.6669 13.2962 102.434 13.8111L99.6012 12.3144C105.268 10.6922 109.914 11.9843 113.776 15.5221C113.776 15.5221 113.181 13.1721 113.339 12.9562C115.077 13.2369 118.083 15.2414 119.433 16.8579L118.737 13.4373L121.73 15.3613L121.732 15.3627Z" fill="#00A651"/>
<path d="M126.667 36.2239L132.543 38.9421L128.83 41.6786L135.622 45.3222L130.703 50.5004L137.886 52.842L131.104 58.7354L139.274 64.4257L130.815 70.9751L138.789 77.1323" stroke="#00A651" stroke-width="4" stroke-linecap="round" stroke-linejoin="round"/>
<path d="M51.4578 87.1198C49.9203 87.9859 48.3418 88.7589 46.7183 89.4402C45.0933 90.1216 43.4443 90.6477 41.7685 91.0159C40.0927 91.3854 38.3944 91.5702 36.6735 91.5702C34.9526 91.5702 33.2486 91.305 31.5615 90.7761C30.1537 90.398 28.9576 89.752 27.9758 88.8379C26.994 87.9253 26.4763 86.6825 26.4241 85.1083C26.3931 84.4933 26.489 83.8473 26.7105 83.1702C26.932 82.4931 27.255 81.8964 27.6782 81.3801C28.1027 80.8639 28.619 80.4929 29.2284 80.2686C29.8378 80.0443 30.4965 80.0754 31.2074 80.3603C31.6334 80.531 32.003 80.8484 32.3148 81.3096C32.6265 81.7723 32.831 82.2759 32.927 82.8232C33.0229 83.3719 32.9989 83.8924 32.8592 84.3903C32.7182 84.8869 32.4234 85.2776 31.9748 85.5611C31.3273 85.9335 30.9789 86.3652 30.9338 86.8546C30.8872 87.3455 31.0029 87.8096 31.2822 88.2469C31.5601 88.6842 31.9494 89.0608 32.4502 89.3753C32.9495 89.6913 33.4573 89.8818 33.9722 89.9509C35.5845 90.2034 37.1192 90.1216 38.5778 89.704C40.0349 89.2879 41.4723 88.6757 42.8885 87.8717C44.9296 86.5782 46.7662 85.0745 48.3969 83.362C50.0275 81.651 51.5566 79.8483 52.9869 77.9567C54.4158 76.0651 55.8053 74.1199 57.1566 72.1225C58.5065 70.1251 59.9115 68.2024 61.3743 66.3532C62.8342 64.5053 64.4225 62.7576 66.1378 61.1142C67.8517 59.4709 69.7771 58.066 71.9156 56.898C72.5997 56.5313 73.2994 56.1941 74.0131 55.888C74.7269 55.5819 75.435 55.3238 76.136 55.1108C76.366 55.0657 76.6551 54.9994 77.0036 54.9105C77.352 54.823 77.6976 54.7553 78.0403 54.7045C78.3831 54.6552 78.7005 54.6594 78.9925 54.7172C79.2831 54.7751 79.4848 54.9458 79.5976 55.2279C79.7048 55.5481 79.7204 55.7794 79.6456 55.9219C79.5708 56.0643 79.4453 56.1631 79.2704 56.2153C79.0955 56.2689 78.8966 56.29 78.6723 56.2788C78.4494 56.2689 78.2435 56.2703 78.0545 56.283C77.1785 56.3958 76.3646 56.6878 75.6099 57.1604C74.8552 57.6329 74.1513 58.2183 73.4968 58.9137C72.8437 59.6106 72.2414 60.3413 71.6899 61.1086C71.1383 61.876 70.6319 62.5925 70.1707 63.2555C68.6642 65.3093 67.2649 67.452 65.9784 69.6878C64.6891 71.9222 63.3434 74.1029 61.9399 76.2259C60.535 78.3502 58.9974 80.3518 57.3273 82.2293C55.6557 84.1082 53.6993 85.7389 51.4592 87.1212M38.4776 65.7283C38.85 63.8663 39.5285 62.1792 40.5159 60.6685C41.5019 59.1578 42.708 57.8036 44.1298 56.6032C45.5517 55.4042 47.133 54.3336 48.8722 53.3913C50.6115 52.4504 52.4001 51.614 54.2353 50.8847C56.0704 50.1554 57.9945 49.5362 60.0088 49.0283C62.0217 48.5205 64.0657 48.1792 66.1378 48.0028C68.21 47.8279 70.2807 47.8237 72.35 47.9902C74.418 48.1566 76.4478 48.5346 78.4395 49.1243C80.1097 49.6349 81.6867 50.3134 83.1678 51.1597C84.6489 52.0061 85.8635 53.0697 86.8114 54.3505C87.9751 55.8767 88.5746 57.5074 88.6141 59.2438C88.6522 60.9802 88.3165 62.6504 87.6069 64.2514C86.9115 65.7466 85.9551 67.0176 84.7406 68.0642C83.5247 69.1123 82.1508 69.9473 80.6189 70.5736C79.0856 71.1999 77.438 71.6118 75.6734 71.8107C73.9087 72.0082 72.1526 71.9744 70.4091 71.7063C70.2878 71.6908 69.9929 71.6429 69.5275 71.5625C69.062 71.4821 68.6021 71.3579 68.1479 71.1901C67.6937 71.0208 67.3467 70.8318 67.1055 70.6188C66.8643 70.4072 66.908 70.1589 67.2352 69.8782C67.4765 69.6215 67.8319 69.5876 68.3045 69.7767C68.7756 69.9657 69.1536 70.0785 69.4386 70.1166C70.0028 70.228 70.5741 70.2943 71.151 70.3169C71.728 70.3395 72.2922 70.2972 72.8451 70.19C74.4927 69.9403 75.9259 69.3549 77.146 68.4352C78.3648 67.5155 79.4241 66.4844 80.3213 65.3404C81.3637 64.037 82.1169 62.5756 82.581 60.9605C83.0451 59.3454 83.0296 57.7458 82.5359 56.1645C82.0464 54.548 81.1592 53.2756 79.8769 52.3475C78.5919 51.4193 77.067 50.7478 75.301 50.3317C73.3713 49.8944 71.419 49.6349 69.4428 49.5531C67.4666 49.4713 65.5045 49.5898 63.5578 49.9071C61.6521 50.2316 59.8734 50.762 58.223 51.4983C56.5726 52.2346 54.9251 53.0175 53.2845 53.8455C51.7639 54.6904 50.3942 55.6525 49.1741 56.7358C47.9525 57.8177 46.8791 59.0548 45.9481 60.447C45.5827 61.0127 45.2456 61.6799 44.9367 62.4501C44.6264 63.2203 44.4303 63.9975 44.3471 64.7804C44.2638 65.5632 44.3386 66.3221 44.5728 67.0556C44.8055 67.7906 45.2837 68.4042 46.0045 68.8965C46.4954 69.2505 47.0836 69.5002 47.7677 69.6455C48.4519 69.7908 49.1445 69.874 49.8455 69.8951C50.5466 69.9163 51.2378 69.8557 51.9191 69.7104C52.6004 69.5665 53.1858 69.3648 53.6767 69.1052C53.8079 69.0516 53.9659 68.9543 54.1492 68.816C54.3326 68.6778 54.5273 68.541 54.7318 68.407C54.9363 68.2716 55.1338 68.1813 55.3271 68.1347C55.5189 68.0882 55.6924 68.1108 55.8462 68.2039C56.1071 68.4197 56.1579 68.6609 55.9985 68.9275C55.8391 69.1955 55.6868 69.4099 55.5401 69.5707C54.3622 70.6414 52.9178 71.468 51.2053 72.0519C49.4915 72.6359 47.8411 72.9843 46.2528 73.0986C45.3754 73.1635 44.4895 73.1169 43.6009 72.9618C42.7108 72.808 41.8969 72.5456 41.1591 72.1775C40.4214 71.8093 39.8036 71.3128 39.3084 70.6865C38.8119 70.0616 38.5185 69.3098 38.4282 68.4324C38.4071 67.9612 38.4071 67.5014 38.4254 67.0514C38.4438 66.6028 38.4607 66.1627 38.4762 65.7325" fill="black"/>
<path d="M192.943 78.7943C192.724 78.7223 192.442 78.831 192.094 79.1201C191.179 79.9538 190.33 80.8509 189.547 81.8115C188.763 82.7707 187.969 83.7327 187.164 84.6919C186.358 85.6526 185.488 86.5497 184.553 87.3819C183.616 88.217 182.538 88.9223 181.319 89.502C180.449 89.7193 179.937 89.6107 179.785 89.1762C179.632 88.7417 179.655 88.1973 179.851 87.5456C180.047 86.8925 180.329 86.2408 180.699 85.5891C181.068 84.936 181.342 84.5015 181.516 84.2843C183.475 81.748 185.324 79.1385 187.066 76.4569C188.807 73.7754 190.593 71.0939 192.421 68.4124H185.891C185.673 68.8116 185.434 69.1924 185.172 69.5535C184.911 69.916 184.65 70.2969 184.389 70.6947C183.953 69.7172 183.321 69.0641 182.496 68.7382C181.668 68.4124 180.765 68.2854 179.785 68.3588C178.806 68.4307 177.804 68.6395 176.782 68.9836C175.759 69.3278 174.855 69.6819 174.072 70.043C171.808 71.0939 169.73 72.362 167.836 73.8474C165.943 75.3341 164.277 76.9831 162.841 78.7943C162.638 79.0538 162.435 79.319 162.233 79.5898C162.124 79.5659 161.989 79.563 161.828 79.5814C161.384 79.8438 161 80.1569 160.678 80.518C160.354 80.8805 160.093 81.2092 159.891 81.5054C159.004 82.5902 158.066 83.6354 157.077 84.6383C156.088 85.6413 155.029 86.5708 153.9 87.4257C153.415 87.7868 152.851 88.1902 152.205 88.6345C151.56 89.0775 150.895 89.3328 150.209 89.3991C149.522 89.4654 149.119 89.3497 148.999 89.0535C148.877 88.7573 148.897 88.3792 149.058 87.918C150.47 85.6483 152.024 83.4619 153.719 81.3573C155.413 79.2527 156.905 77.0155 158.197 74.6472C158.318 74.2197 158.399 73.7754 158.438 73.3156C158.479 72.8543 158.428 72.4198 158.287 72.0079C158.146 71.5975 157.914 71.218 157.592 70.8724C157.268 70.5282 156.825 70.256 156.26 70.0585C155.573 69.8286 154.868 69.7298 154.142 69.7623C153.415 69.7961 152.699 69.9104 151.993 70.1079C151.287 70.3054 150.611 70.5607 149.966 70.8724C149.32 71.1856 148.735 71.5072 148.212 71.8344C148.13 71.9007 147.948 72.0658 147.667 72.3281C147.384 72.5919 147.082 72.8543 146.759 73.1181C146.436 73.3819 146.124 73.6202 145.821 73.8332C145.519 74.0477 145.307 74.121 145.186 74.0547C144.983 73.9235 144.914 73.6682 144.974 73.2902C145.034 72.9121 145.065 72.6244 145.065 72.4269C145.024 71.9332 144.853 71.5142 144.55 71.1687C144.248 70.8231 143.874 70.5522 143.431 70.3547C142.987 70.1573 142.493 70.0345 141.947 69.9852C141.403 69.9358 140.868 69.9598 140.345 70.0585C138.892 70.3223 137.611 70.84 136.501 71.613C135.391 72.386 134.272 73.135 133.142 73.8572C133.465 73.3649 133.707 72.8388 133.869 72.2788C134.03 71.7202 133.99 71.1277 133.747 70.5029H128.422C128.059 70.5691 127.776 70.7328 127.575 70.9966C127.373 71.2603 127.212 71.5636 127.091 71.9092C126.97 72.2548 126.858 72.6089 126.758 72.97C126.656 73.3325 126.525 73.6287 126.364 73.8572C125.122 75.6896 123.892 77.505 122.676 79.3035C122.633 79.1624 122.509 79.0919 122.301 79.0919C122.009 79.0919 121.707 79.264 121.395 79.6082C121.082 79.9524 120.884 80.202 120.801 80.3586C120.134 81.1725 119.447 82.0005 118.739 82.8455C118.029 83.6904 117.27 84.4959 116.458 85.2618C115.645 86.0292 114.769 86.7556 113.833 87.444C112.895 88.1324 111.864 88.7262 110.739 89.227C110.072 89.4456 109.552 89.4851 109.176 89.3441C108.801 89.203 108.614 88.9914 108.614 88.7107C108.529 88.3045 108.635 87.8658 108.927 87.396C109.217 86.9277 109.467 86.568 109.676 86.3169C111.301 83.9091 113.009 81.5393 114.8 79.209C116.592 76.8787 118.395 74.5569 120.207 72.2407C122.02 69.9273 123.821 67.6281 125.614 65.3443C127.404 63.0606 129.133 60.7628 130.801 58.4466C130.842 58.2914 130.873 58.0093 130.895 57.6016C130.915 57.1968 130.758 56.9457 130.426 56.8512C130.134 56.8512 129.665 56.8836 129.019 56.9457C128.373 57.0092 127.686 57.0712 126.957 57.1333C126.228 57.1968 125.56 57.2588 124.957 57.3209C124.353 57.3844 123.968 57.4309 123.801 57.462C123.759 57.6185 123.738 57.8217 123.738 58.0713V58.6821C123.697 58.9008 123.624 59.1124 123.519 59.3155C123.415 59.5186 123.279 59.7302 123.113 59.9488C121.405 62.1691 119.697 64.3668 117.988 66.5405C116.28 68.7156 114.551 70.8964 112.802 73.0856C111.342 74.9631 109.854 76.8082 108.333 78.6222C108.315 78.6433 108.296 78.6659 108.279 78.6871C108.085 78.6758 107.846 78.7915 107.561 79.0341C106.67 79.8677 105.84 80.7649 105.076 81.7241C104.311 82.6847 103.537 83.6453 102.751 84.6059C101.964 85.5651 101.115 86.4622 100.202 87.2959C99.2882 88.1295 98.2359 88.8362 97.0482 89.416C96.1976 89.6332 95.6983 89.5246 95.5502 89.0902C95.4006 88.6543 95.4232 88.1112 95.6136 87.4595C95.8055 86.8064 96.0805 86.1547 96.4416 85.5016C96.8028 84.8499 97.068 84.4155 97.2386 84.1968C99.15 81.662 100.956 79.0524 102.655 76.3709C104.354 73.6894 106.096 71.0078 107.88 68.3263H101.508C101.295 68.7255 101.061 69.105 100.807 69.4675C100.552 69.83 100.297 70.2109 100.043 70.6086C99.6169 69.6297 99.0005 68.978 98.195 68.6522C97.3867 68.3263 96.5065 68.1994 95.5502 68.2713C94.5938 68.3447 93.6162 68.552 92.619 68.8962C91.6203 69.2418 90.7387 69.5944 89.9741 69.957C87.7651 71.0078 85.7367 72.276 83.8888 73.7613C82.041 75.2481 80.416 76.8956 79.0153 78.7082C78.3777 79.5419 77.75 80.4291 77.1349 81.3714C76.5199 82.3137 76.0192 83.2926 75.6369 84.3069C75.2546 85.3211 75.043 86.3452 75.0007 87.3777C74.9584 88.4102 75.1912 89.4343 75.7018 90.4485C76.211 91.4628 76.8585 92.1243 77.6442 92.4318C78.4299 92.7393 79.279 92.8127 80.1931 92.6491C81.1072 92.4868 82.041 92.1412 82.9973 91.6165C83.9537 91.0918 84.8777 90.5022 85.7691 89.8505C86.6606 89.1988 87.4788 88.5555 88.2222 87.9208C88.9655 87.2874 89.5707 86.7528 90.039 86.3169C89.9529 86.8981 89.9008 87.5315 89.8796 88.2198C89.857 88.9082 89.9318 89.5613 90.1025 90.1763C90.2717 90.7927 90.5905 91.3005 91.0574 91.6983C91.5243 92.0975 92.2466 92.2781 93.2241 92.2414C95.0931 91.8803 96.7294 91.2286 98.1315 90.2849C99.5322 89.3426 100.817 88.2565 101.987 87.0236C102.554 86.4256 103.102 85.8148 103.636 85.1899C103.441 85.5721 103.246 86.0024 103.052 86.482C102.676 87.4045 102.489 88.3045 102.489 89.179C102.489 90.0536 102.76 90.7984 103.301 91.4077C103.842 92.0185 104.864 92.2922 106.364 92.2287C108.238 91.948 109.925 91.3852 111.426 90.5402C112.926 89.6953 114.301 88.7107 115.551 87.5836C116.801 86.458 117.957 85.2773 119.019 84.0417C119.626 83.3364 120.235 82.6593 120.85 82.0104C120.629 82.3363 120.41 82.6607 120.192 82.9851C118.175 85.9784 116.038 88.9717 113.776 91.9635H120.07C120.756 91.01 121.441 90.0479 122.128 89.0775C122.814 88.1084 123.521 87.1464 124.247 86.1914C125.457 84.4818 126.697 82.8046 127.968 81.1598C129.239 79.5151 130.64 77.9366 132.175 76.4231C132.296 76.3243 132.516 76.1198 132.84 75.8067C133.162 75.4949 133.565 75.1578 134.051 74.7953C134.535 74.4342 135.049 74.0716 135.594 73.7091C136.138 73.348 136.662 73.0602 137.167 72.8458C137.67 72.6328 138.124 72.5341 138.529 72.551C138.931 72.568 139.235 72.7556 139.436 73.1181C139.558 73.348 139.577 73.5949 139.497 73.8572C139.415 74.121 139.294 74.3848 139.134 74.6472C138.972 74.9109 138.79 75.1648 138.589 75.4117C138.387 75.6585 138.226 75.88 138.105 76.0775C137.5 76.9337 136.894 77.797 136.289 78.6673C135.684 79.5405 135.099 80.4038 134.535 81.2586C133.283 83.0669 132.053 84.8598 130.843 86.6357C129.633 88.4117 128.401 90.1876 127.152 91.9635H132.84L140.889 81.4561C141.775 80.2387 142.713 79.0214 143.703 77.804C144.691 76.5881 145.791 75.4865 147.001 74.499C147.243 74.3016 147.536 74.0716 147.879 73.8079C148.221 73.5455 148.594 73.2986 148.999 73.0687C149.401 72.8388 149.804 72.6568 150.209 72.5256C150.611 72.3945 150.995 72.3451 151.359 72.3775C151.923 72.4763 152.195 72.7471 152.175 73.1914C152.154 73.6358 152.013 74.1379 151.752 74.6965C151.488 75.2565 151.167 75.7813 150.783 76.275C150.399 76.7687 150.148 77.1143 150.027 77.3118C149.14 78.5615 148.231 79.7944 147.303 81.0117C146.375 82.2291 145.488 83.4619 144.641 84.7117C144.399 85.1391 144.127 85.6088 143.823 86.118C143.521 86.6287 143.279 87.1534 143.098 87.6965C142.916 88.2396 142.815 88.7742 142.795 89.3003C142.774 89.8265 142.926 90.3202 143.249 90.78C143.571 91.2737 143.995 91.6363 144.52 91.8648C145.043 92.0947 145.609 92.2188 146.214 92.2358C146.819 92.2513 147.434 92.1934 148.061 92.0623C148.686 91.9311 149.279 91.766 149.845 91.57C151.257 91.0438 152.508 90.3442 153.597 89.4724C154.686 88.6021 155.716 87.6894 156.684 86.7345C157.612 85.8458 158.55 84.9416 159.498 84.0205C159.516 84.0022 159.534 83.9852 159.553 83.9669C159.492 84.108 159.434 84.2504 159.379 84.3929C158.988 85.4071 158.771 86.4312 158.728 87.4637C158.684 88.4963 158.922 89.5204 159.446 90.5346C159.967 91.5502 160.63 92.2104 161.437 92.5193C162.241 92.8268 163.112 92.8987 164.048 92.7365C164.985 92.5729 165.943 92.2287 166.922 91.704C167.901 91.1792 168.848 90.5896 169.763 89.9365C170.677 89.2848 171.514 88.6416 172.276 88.0068C173.037 87.3735 173.657 86.8389 174.137 86.4044C174.049 86.9841 173.996 87.6189 173.973 88.3059C173.952 88.9956 174.028 89.6473 174.203 90.2638C174.377 90.8802 174.702 91.3866 175.182 91.7858C175.66 92.1836 176.401 92.3641 177.402 92.3289C179.316 91.9663 180.994 91.3146 182.43 90.3724C183.867 89.4301 185.183 88.3425 186.381 87.1111C187.577 85.8797 188.698 84.5918 189.743 83.2517C190.787 81.9117 191.897 80.6605 193.074 79.501C193.291 79.2118 193.4 79.0482 193.4 79.0115C193.312 78.9396 193.16 78.8676 192.943 78.7943ZM93.0647 79.4657C92.6782 79.9778 92.4342 80.3234 92.334 80.5025C91.6287 81.6465 90.8388 82.7298 89.9642 83.7511C89.0911 84.7752 88.1333 85.7217 87.0923 86.5948C86.8567 86.805 86.545 87.0222 86.1599 87.2479C85.772 87.4736 85.3784 87.6471 84.975 87.767C84.5716 87.8883 84.1766 87.918 83.7901 87.8573C83.4036 87.7981 83.0919 87.5724 82.8577 87.1802C82.5883 86.7895 82.4966 86.331 82.5812 85.8049C82.6644 85.2787 82.8238 84.7441 83.0594 84.2025C83.2936 83.6608 83.563 83.1431 83.8663 82.6466C84.1681 82.1501 84.4206 81.7368 84.6223 81.4053C85.2938 80.353 86.016 79.3148 86.789 78.2921C87.562 77.2708 88.3519 76.2778 89.1588 75.3144C89.5622 74.9236 89.9812 74.5103 90.4184 74.0745C90.8543 73.6386 91.3255 73.2168 91.8304 72.8106C92.334 72.4043 92.8461 72.0587 93.3666 71.7724C93.8871 71.4874 94.4175 71.2998 94.9549 71.2096C95.694 71.2702 96.1468 71.51 96.3161 71.9304C96.484 72.3521 96.4924 72.8783 96.3415 73.5102C96.1892 74.1422 95.9197 74.8334 95.5346 75.5852C95.1481 76.337 94.7363 77.0452 94.299 77.7053C93.8617 78.3683 93.4512 78.9551 93.0647 79.4657ZM177.239 79.5518C176.842 80.0638 176.593 80.4094 176.49 80.59C175.766 81.7325 174.956 82.8159 174.062 83.8385C173.166 84.8612 172.185 85.8091 171.118 86.6809C170.877 86.891 170.558 87.1097 170.162 87.3354C169.765 87.5611 169.362 87.7346 168.949 87.8531C168.535 87.9744 168.13 88.004 167.734 87.9433C167.338 87.8841 167.019 87.6584 166.779 87.2677C166.503 86.8769 166.408 86.4171 166.494 85.8909C166.58 85.3648 166.744 84.8302 166.985 84.2899C167.226 83.7483 167.501 83.2292 167.812 82.7326C168.122 82.2361 168.38 81.8228 168.586 81.4927C169.274 80.439 170.015 79.4022 170.808 78.3796C171.599 77.3569 172.409 76.3638 173.235 75.4018C173.649 75.0111 174.079 74.5964 174.526 74.1605C174.973 73.7246 175.456 73.3029 175.973 72.8966C176.49 72.4918 177.014 72.1462 177.548 71.8598C178.082 71.5735 178.624 71.3859 179.175 71.2956C179.933 71.3563 180.397 71.5961 180.57 72.0178C180.741 72.4396 180.751 72.9643 180.596 73.5963C180.441 74.2282 180.164 74.9208 179.769 75.6727C179.373 76.4245 178.951 77.1312 178.504 77.7928C178.055 78.4543 177.634 79.0411 177.239 79.5518Z" fill="black"/>
<path d="M70.8945 100.561H75.4733C76.5058 100.561 77.2929 100.64 77.8346 100.798C78.5625 101.013 79.186 101.394 79.7051 101.941C80.2241 102.488 80.6191 103.158 80.8899 103.951C81.1608 104.744 81.2962 105.721 81.2962 106.884C81.2962 107.905 81.1692 108.785 80.9153 109.524C80.605 110.427 80.1621 111.158 79.5866 111.716C79.1521 112.139 78.5653 112.47 77.8261 112.707C77.2732 112.881 76.5341 112.969 75.6087 112.969H70.8945V100.561ZM73.3997 102.66V110.878H75.2702C75.9698 110.878 76.4748 110.839 76.7851 110.76C77.1914 110.658 77.5285 110.486 77.7965 110.244C78.0645 110.001 78.2832 109.602 78.4524 109.046C78.6217 108.49 78.7064 107.733 78.7064 106.774C78.7064 105.814 78.6217 105.078 78.4524 104.565C78.2832 104.051 78.0462 103.651 77.7415 103.363C77.4368 103.075 77.0503 102.88 76.582 102.779C76.2322 102.7 75.5466 102.66 74.5254 102.66H73.3997Z" fill="black"/>
<path d="M85.3387 106.722L83.1805 106.332C83.4231 105.463 83.8407 104.82 84.4331 104.403C85.0255 103.985 85.9057 103.776 87.0737 103.776C88.1345 103.776 88.9244 103.902 89.4435 104.153C89.9626 104.404 90.3279 104.723 90.5395 105.109C90.7511 105.496 90.8569 106.205 90.8569 107.238L90.8315 110.014C90.8315 110.804 90.8696 111.386 90.9458 111.762C91.0219 112.137 91.1644 112.539 91.3732 112.968H89.0203C88.9583 112.81 88.8821 112.576 88.7918 112.265C88.7523 112.124 88.7241 112.031 88.7072 111.986C88.3009 112.381 87.8665 112.677 87.4038 112.875C86.9411 113.072 86.4474 113.171 85.9227 113.171C84.9973 113.171 84.2681 112.92 83.7349 112.418C83.2017 111.915 82.9351 111.281 82.9351 110.513C82.9351 110.006 83.0564 109.553 83.299 109.155C83.5416 108.757 83.8816 108.452 84.3188 108.241C84.7561 108.029 85.3867 107.844 86.2104 107.687C87.322 107.478 88.0922 107.283 88.521 107.103V106.866C88.521 106.409 88.4081 106.083 88.1824 105.888C87.9567 105.693 87.5308 105.596 86.9045 105.596C86.4813 105.596 86.1512 105.679 85.9142 105.846C85.6772 106.012 85.4854 106.304 85.3387 106.722ZM88.521 108.651C88.2163 108.753 87.7339 108.874 87.0737 109.015C86.4136 109.156 85.9819 109.295 85.7788 109.43C85.4685 109.65 85.3133 109.929 85.3133 110.268C85.3133 110.606 85.4374 110.889 85.6857 111.131C85.934 111.374 86.2499 111.495 86.6336 111.495C87.0624 111.495 87.4715 111.354 87.8608 111.072C88.1486 110.858 88.3376 110.595 88.4279 110.285C88.4899 110.082 88.521 109.695 88.521 109.125V108.651Z" fill="black"/>
<path d="M97.4797 103.98V105.876H95.8547V109.498C95.8547 110.232 95.8702 110.659 95.9013 110.781C95.9323 110.902 96.0028 111.002 96.1129 111.081C96.2229 111.16 96.3569 111.2 96.5149 111.2C96.7349 111.2 97.0537 111.123 97.4713 110.971L97.6744 112.816C97.1214 113.053 96.4951 113.172 95.7955 113.172C95.3667 113.172 94.9802 113.1 94.636 112.956C94.2918 112.812 94.0393 112.626 93.8785 112.397C93.7177 112.169 93.6063 111.86 93.5442 111.47C93.4934 111.194 93.468 110.635 93.468 109.795V105.876H92.3762V103.98H93.468V102.194L95.8547 100.806V103.98H97.4797Z" fill="black"/>
<path d="M104.49 110.107L106.86 110.505C106.555 111.374 106.074 112.035 105.417 112.49C104.76 112.944 103.937 113.171 102.95 113.171C101.387 113.171 100.23 112.66 99.4797 111.639C98.8873 110.821 98.5911 109.788 98.5911 108.541C98.5911 107.052 98.9804 105.885 99.759 105.042C100.538 104.198 101.522 103.776 102.713 103.776C104.05 103.776 105.105 104.218 105.878 105.101C106.651 105.984 107.021 107.337 106.987 109.159H101.029C101.045 109.864 101.237 110.413 101.604 110.805C101.971 111.197 102.428 111.394 102.975 111.394C103.348 111.394 103.661 111.292 103.915 111.089C104.169 110.886 104.36 110.558 104.49 110.107ZM104.626 107.703C104.609 107.015 104.431 106.492 104.092 106.133C103.754 105.775 103.342 105.596 102.857 105.596C102.338 105.596 101.909 105.785 101.57 106.163C101.232 106.541 101.065 107.055 101.071 107.703H104.626Z" fill="black"/>
<path d="M108.244 110.403L110.63 110.039C110.732 110.502 110.938 110.853 111.248 111.093C111.559 111.333 111.993 111.453 112.552 111.453C113.167 111.453 113.629 111.34 113.94 111.114C114.148 110.956 114.253 110.745 114.253 110.479C114.253 110.299 114.196 110.149 114.083 110.031C113.965 109.918 113.7 109.814 113.288 109.718C111.37 109.295 110.154 108.908 109.64 108.558C108.929 108.073 108.574 107.399 108.574 106.535C108.574 105.757 108.881 105.102 109.496 104.572C110.111 104.042 111.065 103.776 112.357 103.776C113.649 103.776 114.501 103.977 115.099 104.377C115.697 104.778 116.109 105.37 116.335 106.155L114.092 106.569C113.996 106.22 113.814 105.951 113.546 105.765C113.278 105.579 112.896 105.486 112.399 105.486C111.773 105.486 111.324 105.573 111.054 105.748C110.873 105.872 110.783 106.033 110.783 106.231C110.783 106.4 110.862 106.544 111.02 106.662C111.234 106.82 111.975 107.043 113.241 107.331C114.508 107.619 115.393 107.971 115.895 108.389C116.391 108.812 116.639 109.402 116.639 110.158C116.639 110.982 116.295 111.69 115.607 112.282C114.919 112.875 113.9 113.171 112.552 113.171C111.327 113.171 110.358 112.923 109.644 112.426C108.931 111.93 108.464 111.255 108.244 110.403Z" fill="black"/>
<path d="M131.806 108.406L134.235 109.177C133.863 110.531 133.244 111.536 132.377 112.194C131.511 112.851 130.412 113.18 129.081 113.18C127.433 113.18 126.079 112.617 125.018 111.491C123.958 110.366 123.427 108.827 123.427 106.874C123.427 104.809 123.96 103.206 125.027 102.063C126.093 100.92 127.495 100.349 129.233 100.349C130.751 100.349 131.984 100.798 132.932 101.695C133.496 102.225 133.919 102.987 134.201 103.98L131.722 104.572C131.575 103.929 131.269 103.421 130.803 103.049C130.338 102.677 129.772 102.49 129.106 102.49C128.187 102.49 127.44 102.82 126.868 103.481C126.295 104.141 126.009 105.21 126.009 106.688C126.009 108.257 126.291 109.374 126.855 110.04C127.419 110.706 128.153 111.039 129.055 111.039C129.721 111.039 130.294 110.827 130.774 110.404C131.253 109.981 131.597 109.315 131.806 108.406Z" fill="black"/>
<path d="M135.975 108.347C135.975 107.557 136.17 106.792 136.559 106.053C136.948 105.314 137.5 104.75 138.213 104.36C138.927 103.971 139.724 103.776 140.604 103.776C141.964 103.776 143.079 104.218 143.947 105.101C144.816 105.984 145.251 107.1 145.251 108.448C145.251 109.797 144.812 110.935 143.935 111.829C143.057 112.724 141.953 113.171 140.621 113.171C139.798 113.171 139.012 112.985 138.264 112.612C137.517 112.24 136.948 111.694 136.559 110.975C136.17 110.255 135.975 109.379 135.975 108.347ZM138.412 108.474C138.412 109.365 138.624 110.048 139.047 110.522C139.47 110.996 139.992 111.233 140.613 111.233C141.234 111.233 141.754 110.996 142.174 110.522C142.595 110.048 142.805 109.359 142.805 108.457C142.805 107.554 142.595 106.899 142.174 106.425C141.754 105.951 141.234 105.715 140.613 105.715C139.992 105.715 139.47 105.951 139.047 106.425C138.624 106.899 138.412 107.582 138.412 108.474Z" fill="black"/>
<path d="M149.648 110.59H147.269V112.968H149.648V110.59Z" fill="black"/>
<defs>
<linearGradient id="paint0_linear_88_107103" x1="110.131" y1="17.8845" x2="110.52" y2="161.334" gradientUnits="userSpaceOnUse">
<stop stop-color="#F2A950"/>
<stop offset="1" stop-color="#D9A74A" stop-opacity="0"/>
</linearGradient>
</defs>
</svg>
